<svg width="108" height="52" viewBox="0 0 108 52" fill="none" xmlns="http://www.w3.org/2000/svg">
<g clip-path="url(#clip0_63_676)">
<path d="M50.8162 22.5062L50.2131 27.4551C50.1043 28.3214 49.9726 29.1725 49.7952 29.9999H42.5412L40.2212 30.2514L39.849 32.3402C39.0764 36.8071 39.7416 41.077 41.7368 44.6507C37.0191 48.9998 30.654 51.4993 23.3911 51.4993C16.0293 51.4993 9.61073 48.8053 5.3262 43.918C1.18728 39.1964 -0.637732 32.8175 0.198404 25.9717C1.93027 11.6956 14.4441 0.5 28.6663 0.5C37.4908 0.5 45.1388 4.83186 48.6193 11.7965L48.9602 12.4765L37.8077 18.5097L37.4523 17.8008C35.8821 14.6756 31.8988 12.6639 27.3138 12.6639C19.68 12.6639 13.4456 18.3692 12.4874 26.2318C12.0317 29.9614 12.8807 33.168 14.9312 35.5194C17.1274 38.0268 20.5454 39.3452 24.8139 39.3452C30.0277 39.3452 34.0956 37.3049 36.4313 33.5753H24.2957L25.6422 22.5062H50.8162Z" fill="black"/>
<path d="M74.7669 18.7121L72.1386 33.1615H78.3723L78.3088 33.5282C76.2525 43.4573 66.8549 51.3754 57.0503 51.3754C52.1602 51.3754 47.8767 49.4522 44.9843 45.9802C42.0306 42.4285 40.8854 37.7051 41.7597 32.6791L41.875 32.0218L42.5409 31.9519H54.1808L54.0187 32.9515C53.7325 34.5911 54.0709 36.0511 54.9926 37.1825C55.9351 38.3373 57.3369 38.9774 58.9214 38.9774C60.5066 38.9774 62.1706 38.2973 63.5935 37.0805C64.9856 35.8857 66.2307 33.0912 66.5237 31.9519C66.6086 31.6151 70.0356 11.8887 70.0356 11.8887H58.6894L60.9309 0.5H84.165L80.9393 18.7121H74.7669Z" fill="black"/>
<path d="M106.147 31.2143H95.5618L93.7107 41.8966H83.1921L85.0432 31.2143H74.46L76.3778 20.6624H86.8964L88.8142 9.97607H99.2678L97.415 20.6624H108L106.147 31.2143Z" fill="black"/>
</g>
<defs>
<clipPath id="clip0_63_676">
<rect width="108" height="51" fill="white" transform="translate(0 0.5)"/>
</clipPath>
</defs>
</svg>
